<?xml version="1.0"?>
<svg xmlns="http://www.w3.org/2000/svg" xmlns:xlink="http://www.w3.org/1999/xlink" version="1.1" id="Capa_1" x="0px" y="0px" width="512px" height="512px" viewBox="0 0 612 612" style="enable-background:new 0 0 612 612;" xml:space="preserve" class=""><g transform="matrix(-1 0 0 1 612 0)"><g>
	<g>
		<polygon points="319.909,97.364 292.091,97.364 292.091,292.091 153,292.091 153,319.909 319.909,319.909   " data-original="#000000" class="active-path" fill="#000000"/>
		<path d="M612,306C612,137.004,474.995,0,306,0C137.004,0,0,137.004,0,306c0,168.995,137.004,306,306,306    C474.995,612,612,474.995,612,306z M27.818,306C27.818,152.36,152.36,27.818,306,27.818S584.182,152.36,584.182,306    S459.64,584.182,306,584.182S27.818,459.64,27.818,306z" data-original="#000000" class="active-path" fill="#000000"/>
	</g>
</g></g> </svg>
